:SAMPLES-PER-SECOND 30
:FULLY-SPECIFIED
:DEGREES
936
root  25.8272 37.5008 5.02349 -167.805 -71.1892 163.755
RightUpLeg  7.78039 -6.41735 -11.9882
RightLeg  51.5401 0.678117 0.597424
RightFoot  10.7097 -1.92713 10.0436
RightToes  5.82063e-011 0 -3.6325e-017
Spine  7.09777 1.89331 -0.454604
Spine1  8.99002 3.23959 -7.25113
HEad  -4.50198 -19.2812 -3.68839
LeftShoulder1  -0.290266 4.26332 -32.0949
LeftArm  -7.47899 18.3767 -38.221
LeftForeArm  23.7137 -7.44325 -6.59638
LeftHand  -0.0423325 9.02462 0.231155
RightShoulder  -0.991679 -6.17182 30.6013
RightArm  17.8341 -5.39495 45.0659
RightForeArm  5.72098 13.3317 6.72946
RightHand  -0.418195 3.29245 -5.82885
LeftUpLeg  -18.7715 8.12086 -14.0679
LeftLeg  25.1898 10.0241 5.45492
LeftFoot  -5.62851 -0.64018 13.4582
LeftToes  1.54581e-011 7.46816e-011 -4.69922e-011
937
root  24.7569 37.6354 4.72721 -166.631 -72.4594 161.922
RightUpLeg  2.46686 -2.47555 -10.9632
RightLeg  59.2058 3.01796 4.96117
RightFoot  6.5069 -1.82105 11.8295
RightToes  5.82063e-011 0 -3.6325e-017
Spine  7.45296 1.65582 -1.60713
Spine1  9.72719 2.55484 -6.57515
HEad  -4.70621 -19.1149 -3.19455
LeftShoulder1  -0.2666 4.20445 -31.9253
LeftArm  -5.6605 15.9509 -39.6658
LeftForeArm  23.14 -9.84869 -7.15182
LeftHand  -0.0333732 9.05687 0.51615
RightShoulder  -1.00488 -6.21236 30.5376
RightArm  17.3583 -4.71037 45.0985
RightForeArm  4.12242 14.6104 6.1916
RightHand  -0.475788 3.23916 -6.64366
LeftUpLeg  -15.9698 7.43827 -14.1556
LeftLeg  25.1183 9.75492 5.29405
LeftFoot  -7.32718 -0.419024 13.153
LeftToes  1.54581e-011 7.46816e-011 -4.69922e-011
938
root  23.6386 37.822 4.4342 -165.871 -74.3233 160.737
RightUpLeg  -2.81943 0.613998 -10.0192
RightLeg  63.9345 3.53269 7.21482
RightFoot  4.82409 -1.59147 11.4014
RightToes  5.82063e-011 0 -3.6325e-017
Spine  8.13125 1.03407 -2.20807
Spine1  9.24353 1.52038 -5.93872
HEad  -4.38057 -18.8389 -2.93124
LeftShoulder1  -0.256097 4.17558 -31.9856
LeftArm  -0.970804 13.7692 -40.394
LeftForeArm  21.6217 -13.3226 -7.21548
LeftHand  -0.00833164 7.79065 1.51855
RightShoulder  -1.02632 -6.27606 30.4647
RightArm  17.5172 -4.61853 44.7549
RightForeArm  1.4596 16.8566 5.55164
RightHand  -0.445708 3.8093 -5.87663
LeftUpLeg  -12.9058 6.14089 -13.7976
LeftLeg  24.429 9.54508 4.89855
LeftFoot  -8.82963 -0.225609 12.6628
LeftToes  1.54581e-011 7.46816e-011 -4.69922e-011
939
root  22.4953 38.0308 4.12016 -165.873 -76.5206 160.359
RightUpLeg  -7.74564 3.265 -8.99116
RightLeg  65.5653 2.63399 5.74133
RightFoot  4.13613 -1.25369 9.41538
RightToes  5.82063e-011 0 -3.6325e-017
Spine  8.40548 0.421373 -2.63216
Spine1  8.91997 0.48189 -4.82806
HEad  -3.75951 -18.8059 -2.18851
LeftShoulder1  -0.220773 4.08641 -31.7738
LeftArm  4.66564 11.803 -41.4984
LeftForeArm  18.4171 -17.6331 -5.90844
LeftHand  0.00661449 7.38011 2.55341
RightShoulder  -0.985287 -6.2011 29.9669
RightArm  16.4735 -5.09187 44.6839
RightForeArm  -0.624892 19.5606 4.95072
RightHand  -0.504985 4.19978 -6.38043
LeftUpLeg  -9.60803 4.57422 -12.9661
LeftLeg  23.4047 9.3534 4.30419
LeftFoot  -10.2046 -0.0599312 12.224
LeftToes  1.54581e-011 7.46816e-011 -4.69922e-011
940
root  21.3146 38.2385 3.82053 -166.208 -78.5109 160.149
RightUpLeg  -11.9256 5.39563 -8.64714
RightLeg  64.2648 1.76445 3.43407
RightFoot  2.88404 -0.939443 7.65751
RightToes  5.82063e-011 0 -3.6325e-017
Spine  8.66587 -0.0837677 -3.01538
Spine1  8.73815 -0.387134 -3.53996
HEad  -3.72599 -18.7369 -1.13773
LeftShoulder1  -0.222426 4.09103 -31.7238
LeftArm  9.6397 9.74018 -42.1719
LeftForeArm  14.9765 -22.1498 -4.46038
LeftHand  0.00697659 6.59324 3.67325
RightShoulder  -0.962026 -6.16605 29.5719
RightArm  15.678 -5.10395 44.3845
RightForeArm  -1.32001 22.1119 4.91516
RightHand  -0.558804 4.56098 -6.80257
LeftUpLeg  -5.91892 3.82889 -12.0916
LeftLeg  21.8692 8.58347 3.45326
LeftFoot  -11.4297 0.078463 12.0279
LeftToes  1.54581e-011 7.46816e-011 -4.69922e-011
941
root  20.1277 38.3769 3.55322 -166.603 -80.4884 160.036
RightUpLeg  -15.3513 6.82886 -8.64541
RightLeg  60.1715 1.36689 2.10828
RightFoot  1.28718 -0.635691 5.85561
RightToes  5.82063e-011 0 -3.6325e-017
Spine  9.05256 -0.592185 -2.93398
Spine1  8.34804 -1.0583 -2.76903
HEad  -3.65066 -19.0046 -0.588226
LeftShoulder1  -0.151693 3.90989 -31.2588
LeftArm  10.2693 7.40483 -42.6424
LeftForeArm  14.7289 -25.4895 -4.61984
LeftHand  -0.0159273 5.66015 4.29257
RightShoulder  -0.959429 -6.1607 29.5457
RightArm  14.8104 -5.11827 43.7418
RightForeArm  -0.0451551 24.5229 5.23452
RightHand  -0.562246 4.22617 -7.05789
LeftUpLeg  -2.37393 3.6764 -11.1818
LeftLeg  20.5028 7.09869 2.63078
LeftFoot  -12.8253 0.232979 11.9703
LeftToes  1.54581e-011 7.46816e-011 -4.69922e-011
942
root  18.9401 38.4351 3.28967 -164.978 -82.7823 157.839
RightUpLeg  -17.4949 6.8043 -9.05954
RightLeg  53.1123 1.40315 1.602
RightFoot  -0.844778 -0.602509 6.48017
RightToes  5.82063e-011 0 -3.6325e-017
Spine  9.72823 -1.04576 -3.18762
Spine1  7.72897 -1.82922 -1.34172
HEad  -3.7793 -20.2828 -0.0908508
LeftShoulder1  -0.129973 3.84849 -31.5645
LeftArm  11.0477 4.1294 -42.6701
LeftForeArm  13.6288 -27.5483 -5.20483
LeftHand  -0.0246607 5.34482 5.21988
RightShoulder  -0.921795 -6.0837 29.1509
RightArm  13.6497 -5.17788 43.2703
RightForeArm  2.07207 26.1093 5.49983
RightHand  -0.544836 4.6156 -6.60157
LeftUpLeg  1.03089 3.63425 -10.3983
LeftLeg  19.4377 5.15924 2.05181
LeftFoot  -14.2968 0.394833 11.9145
LeftToes  1.54581e-011 7.46816e-011 -4.69922e-011
943
root  17.7434 38.439 3.03603 -159.458 -84.9929 152.102
RightUpLeg  -18.7437 5.55919 -9.57598
RightLeg  43.2582 2.04823 1.78211
RightFoot  -1.83351 -0.582546 6.84701
RightToes  5.82063e-011 0 -3.6325e-017
Spine  10.0336 -1.51016 -3.49864
Spine1  7.26682 -2.53406 0.033985
HEad  -5.47732 -14.4249 -1.08408
LeftShoulder1  -0.156159 3.9141 -31.9578
LeftArm  12.0315 0.523088 -42.9493
LeftForeArm  12.8836 -28.7241 -5.51827
LeftHand  -0.00995788 5.59901 6.65945
RightShoulder  -0.860114 -5.94226 28.68
RightArm  13.0013 -5.24105 43.1286
RightForeArm  2.35158 27.0959 5.71269
RightHand  -0.596607 4.61405 -7.19633
LeftUpLeg  3.86281 3.73303 -9.68851
LeftLeg  18.7026 3.01273 1.59408
LeftFoot  -15.6448 0.54473 11.9355
LeftToes  1.54581e-011 7.46816e-011 -4.69922e-011
944
root  16.4485 38.4027 2.80204 -152.269 -86.2719 144.507
RightUpLeg  -18.4687 3.73146 -9.81507
RightLeg  30.8867 2.43905 1.41209
RightFoot  -2.25629 -0.651639 7.99407
RightToes  5.82063e-011 0 -3.6325e-017
Spine  9.97676 -1.73799 -2.83711
Spine1  7.41589 -2.55225 -0.0848755
HEad  -10.5846 9.78101 -4.90201
LeftShoulder1  -0.126594 3.84029 -31.4546
LeftArm  12.3426 -3.04085 -44.2337
LeftForeArm  13.2828 -28.573 -5.46165
LeftHand  -0.0318753 5.16011 5.83255
RightShoulder  -0.838329 -5.88405 28.6167
RightArm  13.1655 -5.10457 42.9985
RightForeArm  1.70767 27.053 5.73728
RightHand  -0.665299 4.89249 -7.79754
LeftUpLeg  7.25167 4.73702 -8.66126
LeftLeg  17.4902 0.754619 0.762796
LeftFoot  -17.0625 0.706156 12.0225
LeftToes  1.54581e-011 7.46816e-011 -4.69922e-011
945
root  15.1388 38.2965 2.59114 -139.893 -86.6841 132.157
RightUpLeg  -17.8885 -0.154197 -9.65588
RightLeg  17.4137 3.79223 0.805861
RightFoot  -2.81839 -0.700161 9.12232
RightToes  5.82063e-011 0 -3.6325e-017
Spine  9.45379 -1.67745 -2.46275
Spine1  7.62258 -2.30034 0.00857446
HEad  -10.2397 6.23782 -3.94458
LeftShoulder1  -0.0205626 3.55941 -30.9546
LeftArm  12.1866 -6.06215 -45.6431
LeftForeArm  12.7889 -27.6923 -5.28461
LeftHand  0.0161627 6.12971 6.43581
RightShoulder  -0.808476 -5.80004 28.5912
RightArm  13.7452 -4.8059 43.0517
RightForeArm  0.828668 25.9067 5.51867
RightHand  -0.651784 4.50135 -7.92171
LeftUpLeg  10.2155 5.34509 -8.1825
LeftLeg  16.1094 -0.546478 0.242365
LeftFoot  -18.3172 0.841174 11.9432
LeftToes  1.54581e-011 7.46816e-011 -4.69922e-011
946
root  13.76 38.1505 2.37867 -123.606 -87.2324 115.991
RightUpLeg  -17.111 -6.9232 -8.02667
RightLeg  5.219 7.62719 -0.00693452
RightFoot  -3.74489 -0.682525 9.87178
RightToes  5.82063e-011 0 -3.6325e-017
Spine  8.63911 -1.82054 -1.87029
Spine1  8.20159 -2.35862 0.338963
HEad  -10.7838 5.5801 -3.89838
LeftShoulder1  0.0238241 3.43905 -30.5792
LeftArm  12.7755 -8.65271 -46.9076
LeftForeArm  12.4637 -26.4058 -5.00944
LeftHand  -0.0357138 5.11699 6.07375
RightShoulder  -0.769193 -5.69749 28.4284
RightArm  14.5496 -4.52979 43.3744
RightForeArm  0.648936 24.2349 5.14707
RightHand  -0.605114 4.25966 -7.54141
LeftUpLeg  13.1249 5.4008 -7.65528
LeftLeg  14.8785 -1.60505 0.23636
LeftFoot  -19.6147 0.948311 11.4408
LeftToes  1.54581e-011 7.46816e-011 -4.69922e-011
947
root  12.3258 37.9257 2.1029 -106.467 -87.5896 98.713
RightUpLeg  -16.8331 -8.61383 -7.25662
RightLeg  -2.0542 7.34557 -0.448358
RightFoot  -4.70106 -0.632188 10.3025
RightToes  5.82063e-011 0 -3.6325e-017
Spine  8.65658 -1.87842 -1.27312
Spine1  8.07748 -2.39666 0.729699
HEad  -11.0942 5.25831 -3.99222
LeftShoulder1  0.046281 3.37782 -30.6078
LeftArm  13.332 -10.4139 -47.7517
LeftForeArm  11.095 -24.9827 -4.76553
LeftHand  0.00798301 5.9215 7.06208
RightShoulder  -0.733881 -5.601 28.3415
RightArm  15.3427 -4.7038 43.5589
RightForeArm  0.599381 22.4346 4.85111
RightHand  -0.539277 4.24034 -6.76775
LeftUpLeg  16.1939 5.66098 -6.65348
LeftLeg  14.1826 -2.97429 0.0570768
LeftFoot  -21.3643 1.06387 10.6336
LeftToes  1.54581e-011 7.46816e-011 -4.69922e-011
948
root  10.8262 37.607 1.782 -94.8761 -87.7198 87.0473
RightUpLeg  -17.871 -8.13724 -6.69489
RightLeg  -1.5937 5.94776 -0.254922
RightFoot  -5.73369 -0.542722 10.0633
RightToes  5.82063e-011 0 -3.6325e-017
Spine  8.80017 -1.85732 -0.882891
Spine1  7.98142 -2.42042 1.10448
HEad  -11.8489 4.74014 -4.66165
LeftShoulder1  0.0241828 3.43814 -30.7261
LeftArm  14.6471 -11.6183 -48.0944
LeftForeArm  9.61212 -23.6756 -4.56789
LeftHand  0.0398057 6.47943 7.07039
RightShoulder  -0.728721 -5.57381 28.5433
RightArm  15.9074 -4.33824 43.6722
RightForeArm  -0.150603 19.8578 4.87224
RightHand  -0.608746 4.2822 -7.57413
LeftUpLeg  18.7742 5.76096 -5.67442
LeftLeg  14.5469 -3.58834 0.0485513
LeftFoot  -23.2184 1.14792 9.67003
LeftToes  1.54581e-011 7.46816e-011 -4.69922e-011
949
root  9.2506 37.2994 1.43483 -82.3435 -87.972 74.5332
RightUpLeg  -19.6277 -7.56628 -5.70619
RightLeg  4.46963 3.47613 0.354343
RightFoot  -2.99157 -0.556584 8.13204
RightToes  5.82063e-011 0 -3.6325e-017
Spine  8.98393 -2.00185 -0.568814
Spine1  7.8891 -2.7623 1.80057
HEad  -12.6356 4.9417 -5.17648
LeftShoulder1  0.00164064 3.49964 -30.8721
LeftArm  15.0923 -11.3434 -48.0155
LeftForeArm  9.08618 -23.0093 -4.55923
LeftHand  0.0410641 6.52589 6.94527
RightShoulder  -0.757334 -5.6456 28.7184
RightArm  15.5311 -4.00464 43.8241
RightForeArm  1.29367 17.3216 5.17852
RightHand  -0.577747 4.35722 -7.15287
LeftUpLeg  20.9145 5.27978 -4.5268
LeftLeg  15.7444 -4.0626 -0.0781673
LeftFoot  -24.418 1.09869 8.27006
LeftToes  1.54581e-011 7.46816e-011 -4.69922e-011
950
root  7.65444 37.1726 1.09846 -48.8178 -88.5798 41.2152
RightUpLeg  -21.9215 -6.81885 -4.29165
RightLeg  11.876 3.37591 0.695403
RightFoot  3.94977 -0.48905 3.58251
RightToes  5.82063e-011 0 -3.6325e-017
Spine  8.86241 -2.31498 0.695169
Spine1  8.2808 -3.32322 3.04836
HEad  -13.5754 5.25216 -6.13174
LeftShoulder1  0.0203738 3.44872 -31.2746
LeftArm  15.25 -10.1591 -47.6435
LeftForeArm  9.47502 -22.2664 -4.64695
LeftHand  0.0341335 6.44592 6.71941
RightShoulder  -0.76905 -5.67253 28.8101
RightArm  14.055 -4.29222 43.639
RightForeArm  2.64432 15.2704 5.45863
RightHand  -0.559242 4.4 -6.90948
LeftUpLeg  22.8856 3.17549 -3.30579
LeftLeg  16.5518 -3.40829 -0.154353
LeftFoot  -24.0928 0.767263 5.58522
LeftToes  1.54581e-011 7.46816e-011 -4.69922e-011
